<svg xmlns="http://www.w3.org/2000/svg" fill="none" viewBox="0 0 24000 24000"><path d="m16100 13359-528-532 530 532Zm456-453 529 532-529-532Zm2417-317-358 660 358-660Zm1910 1039-358 659 358-660Zm539 3255 529 532-530-532Zm-1420 1412-530-531 530 531Zm-1326 670 70 747-70-747Zm-9860-4238 528-532-529 532ZM4002 5746l-749 42 749-42Zm6474 1451 530 532-530-532Zm157-2654 600-449-600 450ZM9374 2860l-601 450 600-450ZM6260 2575l530 532-530-532Zm-1570 1560-528-531 529 532Zm7372 7362 529-532-529 532Zm4566 2394 456-453-1058-1064-455 453 1058 1064Zm1986-643 1910 1039 716-1318-1910-1042-716 1318Zm2278 3103-1420 1413 1057 1063 1420-1412-1057-1064Zm-2286 1867c-1450 136-5201 15-9263-4023l-1057 1063c4432 4407 8650 4623 10459 4454l-140-1494Zm-9263-4023c-3870-3850-4513-7087-4593-8492l-1498 85c100 1768 895 5356 5033 9470l1057-1063Zm1376-6180 286-286L9950 6663l-287 285 1057 1063Zm515-3920L9974 2410l-1201 899 1260 1684 1202-899ZM5733 2042l-1570 1560L5220 4666l1570-1560-1058-1064Zm4458 5440a26920 26920 0 00-530-530l-2 4a1064 1064 0 00-127 157c-53 80-112 185-162 318a2099 2099 0 00-88 1070c133 866 730 2009 2255 3527l1058-1064c-1429-1420-1769-2284-1832-2692-30-194 0-290 10-312 7-13 9-14 0-5a276 276 0 01-30 39l-10 10a203 203 0 01-10 10l-530-531Zm1346 4546c1527 1518 2676 2110 3542 2242 443 68 800 14 1070-87a1536 1536 0 00 421-236 923 923 0 00 50-45l7-6 3-3 1-2s2-1-527-533c-530-532-528-533-528-533l2-2 2-2 6-5 10-10a383 383 0 01 38-30c10-7 7-4-7 2-25 9-123 40-320 10-414-64-1284-404-2712-1824l-1058 1064Zm-1560-9620C8955 1048 6950 833 5733 2043L6790 3107c532-530 1476-475 1983 202l1200-900ZM4752 5703c-20-346 139-708 469-1036L4163 3604c-537 534-960 1290-909 2184l1498-85Zm14720 12060c-274 274-570 428-865 455l140 1494c734-69 1335-440 1783-885l-1058-1063ZM11006 7730c985-980 1058-2528 229-3636l-1201 899c403 539 343 1246-85 1673l1057 1063Zm9520 6557c817 444 944 1490 367 2064l1058 1064c1340-1333 927-3557-710-4446l-716 1318Zm-3440-850c383-380 1001-475 1529-189l716-1317c-1084-590-2428-427-3304 443l1058 1064Z" fill="#1C274C"/></svg>
